<svg xmlns="http://www.w3.org/2000/svg" width="24" height="24" fill="currentColor" class="bi bi-whatsapp" viewBox="0 0 16 16">
  <path d="M13.601 2.326A7.927 7.927 0 0 0 8 0a8.12 8.12 0 0 0-8 8.207c0 1.447.377 2.859 1.094 4.102L0 16l4.121-1.068A7.88 7.88 0 0 0 8 16c4.373 0 8-3.636 8-8.207 0-2.18-.852-4.258-2.399-5.467zM8 15a7.026 7.026 0 0 1-3.688-1.004l-.26-.156-2.725.707.727-2.641-.169-.271A7.054 7.054 0 0 1 1 8.207C1 4.384 4.134 1 8 1c1.873 0 3.644.737 4.949 2.065A7.112 7.112 0 0 1 15 7.793C15 11.616 11.866 15 8 15z"/>
  <path d="M11.225 9.075c-.144-.072-.86-.426-.994-.475-.133-.048-.23-.072-.326.072-.096.143-.374.475-.458.573-.084.096-.169.108-.313.036-.144-.072-.608-.223-1.158-.71-.428-.383-.716-.856-.8-.998-.084-.143-.009-.221.063-.293.065-.065.144-.169.216-.253.072-.084.096-.144.144-.24.048-.096.024-.18-.012-.253-.036-.072-.326-.786-.448-1.08-.119-.289-.24-.24-.326-.24-.084-.008-.18-.012-.276-.012a.527.527 0 0 0-.384.18c-.132.143-.504.492-.504 1.2s.517 1.389.588 1.486c.072.096 1.014 1.552 2.46 2.18.344.148.612.237.82.302.344.109.656.094.904.057.276-.043.86-.352.982-.691.12-.34.12-.632.084-.691-.036-.06-.132-.096-.276-.168z"/>
</svg>
