<svg width="205" height="25" viewBox="0 0 205 25" fill="none" xmlns="http://www.w3.org/2000/svg">
<g clip-path="url(#clip0_4851_16)">
<path d="M12.0061 13.8041C10.3259 13.8041 8.89033 13.2188 7.71224 12.0547C6.52772 10.8906 5.94189 9.46564 5.94189 7.77989C5.94189 6.09414 6.53416 4.73281 7.71224 3.56233C8.87102 2.37276 10.3066 1.78116 12.0061 1.78116H23.2978V5.22263H12.0061C11.6456 5.22263 11.3044 5.28625 10.9826 5.41347C10.6607 5.5407 10.3839 5.72518 10.1392 5.96055C9.90104 6.19592 9.71435 6.47582 9.5856 6.79388C9.45684 7.11195 9.39247 7.43638 9.39247 7.77353C9.39247 8.48599 9.64353 9.09668 10.1457 9.61195C10.6478 10.1272 11.2658 10.3817 12.0061 10.3817H17.2013C18.8815 10.3817 20.3171 10.9669 21.4952 12.131C22.6991 13.3015 23.2978 14.7137 23.2978 16.374C23.2978 18.0343 22.6991 19.4338 21.4952 20.617C20.3107 21.7875 18.8815 22.3664 17.2013 22.3664H5.94189V18.9249H17.2078C17.5683 18.9249 17.9095 18.8613 18.2313 18.7341C18.5532 18.6069 18.83 18.4287 19.0747 18.1997C19.3129 17.9707 19.4996 17.6972 19.6283 17.3855C19.7571 17.0674 19.8214 16.7303 19.8214 16.374C19.8214 15.6807 19.5639 15.0763 19.0425 14.5611C18.5403 14.0458 17.9288 13.7913 17.2078 13.7913H12.0126L12.0061 13.8041Z" fill="white"/>
<path d="M56.1362 15.528V22.3855H52.6792V1.78116H63.1017C65.0073 1.78116 66.636 2.45546 68.0008 3.7977C69.3655 5.1463 70.0415 6.76844 70.0415 8.66411C70.0415 10.5598 69.3591 12.1692 68.0008 13.5305C66.636 14.8537 65.0073 15.5216 63.1017 15.5216H56.1298L56.1362 15.528ZM56.1362 5.229V12.0865H63.1082C64.0481 12.0865 64.8592 11.7494 65.5416 11.0751C66.224 10.4008 66.5652 9.59923 66.5652 8.67047C66.5652 7.74172 66.224 6.90839 65.5416 6.23409C64.8592 5.55978 64.0481 5.22263 63.1082 5.22263H56.1362V5.229Z" fill="white"/>
<path d="M109.305 22.3855L105.281 15.528H99.3906V22.3855H95.9336V1.78116H106.356C108.262 1.78116 109.89 2.45546 111.255 3.7977C112.62 5.1463 113.296 6.75571 113.296 8.63867C113.296 10.0636 112.884 11.3613 112.066 12.5254C111.268 13.6705 110.244 14.4974 109.002 14.9873L113.296 22.3791H109.298L109.305 22.3855ZM106.363 5.229H99.3906V12.0547L106.363 12.0865C107.302 12.0865 108.114 11.7494 108.796 11.0751C109.478 10.4008 109.82 9.59286 109.82 8.63867C109.82 7.68447 109.478 6.90839 108.796 6.23409C108.114 5.55978 107.302 5.22263 106.363 5.22263V5.229Z" fill="white"/>
<path d="M169.38 1.78116L175.927 14.6946L182.474 1.78116H186.35L175.927 22.3791L165.505 1.78116H169.38Z" fill="white"/>
<path fill-rule="evenodd" clip-rule="evenodd" d="M165.428 12.1056C165.376 11.9847 165.306 11.8702 165.203 11.7748L153.596 0.298982C153.499 0.203562 153.383 0.127226 153.254 0.0763359C153.126 0.0254453 152.99 0 152.849 0C152.688 0 152.559 0.0318066 152.437 0.0826972C152.314 0.139949 152.199 0.222646 152.089 0.33715L140.559 11.7303C140.456 11.8321 140.379 11.9466 140.334 12.0738C140.282 12.2074 140.257 12.3473 140.263 12.4873V12.5064C140.263 12.6463 140.282 12.7863 140.334 12.9198C140.385 13.0471 140.463 13.1616 140.559 13.2634L152.089 24.6565C152.134 24.701 152.173 24.7392 152.211 24.771C152.25 24.8028 152.289 24.8282 152.34 24.8601C152.43 24.9109 152.508 24.9427 152.585 24.9682C152.662 24.9873 152.746 25 152.849 25C152.99 25 153.126 24.9746 153.254 24.9237C153.383 24.8728 153.493 24.7964 153.596 24.701L165.209 13.2252C165.306 13.1298 165.383 13.0153 165.434 12.8944C165.486 12.7672 165.512 12.6336 165.512 12.5C165.512 12.3664 165.486 12.2328 165.434 12.1056H165.428Z" fill="#B45FFF"/>
<path d="M204.15 11.2277H0.849768C0.380454 11.2277 0 11.6037 0 12.0674C0 12.5312 0.380454 12.9071 0.849768 12.9071H204.15C204.62 12.9071 205 12.5312 205 12.0674C205 11.6037 204.62 11.2277 204.15 11.2277Z" fill="#B45FFF"/>
<path fill-rule="evenodd" clip-rule="evenodd" d="M155.224 15.7824C155.34 15.897 155.456 16.0051 155.565 16.1132C155.713 16.2532 155.881 16.3295 156.061 16.3295C156.241 16.3295 156.409 16.2532 156.557 16.1069L160.387 12.3728C160.484 12.2774 160.529 12.1501 160.529 12.0165C160.529 11.8893 160.477 11.7685 160.393 11.6794L153.306 4.67558L153.293 4.66285C153.248 4.62469 153.196 4.59288 153.138 4.56743C153.074 4.54199 152.997 4.53563 152.932 4.52927C152.932 4.52927 152.906 4.52927 152.868 4.52927C152.829 4.52927 152.803 4.52927 152.803 4.52927C152.739 4.52927 152.668 4.54199 152.597 4.56743C152.539 4.59288 152.488 4.62469 152.443 4.66285L152.43 4.67558L145.342 11.6794C145.259 11.7748 145.207 11.8893 145.207 12.0165C145.207 12.1501 145.259 12.2774 145.349 12.3728L149.179 16.1069C149.327 16.2532 149.501 16.3295 149.675 16.3295C149.855 16.3295 150.022 16.2532 150.17 16.1132C150.28 16.0051 150.396 15.8906 150.512 15.7824C150.911 15.4453 151.432 15.159 152.024 15.7379L152.127 15.8461L149.424 18.5115C149.327 18.6005 149.231 18.6959 149.153 18.7914C149.115 18.8359 149.089 18.8868 149.07 18.9377C149.05 18.9886 149.044 19.0458 149.044 19.1031C149.044 19.2366 149.095 19.3639 149.192 19.4593C149.288 19.5547 149.417 19.6056 149.552 19.6056H156.151C156.286 19.6056 156.415 19.5547 156.512 19.4593C156.608 19.3639 156.66 19.2366 156.66 19.1031C156.66 19.0458 156.653 18.9886 156.634 18.9377C156.615 18.8868 156.589 18.8359 156.55 18.7914C156.473 18.6896 156.376 18.6005 156.28 18.5115L153.576 15.8461L153.679 15.7379C154.271 15.159 154.793 15.4453 155.192 15.7824H155.224ZM152.417 14.6692C152.327 14.5674 152.288 14.4529 152.295 14.3321C152.301 14.2176 152.359 14.1158 152.449 14.0331L152.623 13.8613C152.7 13.7977 152.791 13.7659 152.881 13.7595C152.971 13.7659 153.061 13.7977 153.138 13.8613L153.312 14.0331C153.402 14.1158 153.454 14.2176 153.467 14.3321C153.473 14.4529 153.434 14.5674 153.344 14.6692L152.881 15.1272L152.417 14.6692Z" fill="#131521"/>
<path d="M46.6729 13.8041C46.6729 16.1768 45.8232 18.2061 44.1172 19.8918C42.3919 21.5522 40.3447 22.3855 37.9564 22.3855C35.568 22.3855 33.553 21.5522 31.8278 19.8918C30.1475 18.187 29.3042 16.1641 29.3042 13.8041V1.78116H32.7612V13.8041C32.7612 15.229 33.2633 16.4376 34.2612 17.4237C35.2848 18.4351 36.5143 18.9376 37.9564 18.9376C39.3984 18.9376 40.6216 18.4351 41.6194 17.4237C42.6623 16.4122 43.1837 15.2099 43.1837 13.8041V1.78116H46.6665V13.8041H46.6729Z" fill="white"/>
<path d="M89.9274 1.78116V5.22263H79.5049V10.388H89.9274V13.8041H79.5049V18.9376H89.9274V22.3791H76.0479V1.78116H89.9274Z" fill="white"/>
<path d="M119.309 1.75574L133.188 14.1031V1.75574H136.671V22.3537V22.3219V22.3791L122.766 10.0318V22.3473H119.309V1.75574Z" fill="white"/>
<path d="M197.558 18.9376H187.972L186.202 22.3791H182.327L192.749 1.78116L203.172 22.3791H199.296L197.552 18.9376H197.558ZM189.691 15.528H195.82L192.756 9.472L189.691 15.528Z" fill="white"/>
</g>
<defs>
<clipPath id="clip0_4851_16">
<rect width="205" height="25" fill="white"/>
</clipPath>
</defs>
</svg>
